<svg width="176" height="175" viewBox="0 0 176 175" fill="none" xmlns="http://www.w3.org/2000/svg">
<g clip-path="url(#clip0_201_3852)">
<path d="M91.4375 172.941C131.996 172.941 164.875 136.839 164.875 92.3039C164.875 47.7692 131.996 11.6667 91.4375 11.6667C50.8791 11.6667 18 47.7692 18 92.3039C18 136.839 50.8791 172.941 91.4375 172.941Z" fill="url(#paint0_linear_201_3852)"/>
<path fill-rule="evenodd" clip-rule="evenodd" d="M142.613 42.6132C143.79 39.623 144.139 36.6383 144.651 33.5139C144.751 32.9037 144.337 32.3297 143.726 32.2292C143.116 32.1286 142.54 32.5435 142.439 33.1536C141.954 36.1163 141.645 38.9561 140.527 41.7965C140.301 42.371 140.585 43.0213 141.161 43.245C141.736 43.4723 142.387 43.1877 142.613 42.6132Z" fill="#303030"/>
<path fill-rule="evenodd" clip-rule="evenodd" d="M148.29 49.4747C154.097 45.4521 159.786 40.0389 164.015 34.3699C164.384 33.8746 164.281 33.1733 163.785 32.8063C163.288 32.4392 162.586 32.5405 162.217 33.0357C158.128 38.5169 152.626 43.7523 147.011 47.6391C146.503 47.9918 146.378 48.6887 146.731 49.1943C147.084 49.7 147.783 49.8273 148.29 49.4747Z" fill="#303030"/>
<path fill-rule="evenodd" clip-rule="evenodd" d="M148.911 54.802C153.539 56.2149 158.596 55.5403 163.151 54.2388C163.746 54.0668 164.09 53.448 163.919 52.8579C163.748 52.264 163.127 51.9215 162.533 52.0898C158.384 53.2768 153.781 53.9521 149.565 52.6658C148.974 52.4851 148.347 52.8181 148.167 53.4063C147.986 53.9944 148.32 54.6213 148.911 54.802Z" fill="#303030"/>
<path d="M38.6813 126.046C38.987 126.229 39.0855 126.625 38.9009 126.929C38.7171 127.232 38.3189 127.33 38.0139 127.145L38.6813 126.046ZM38.6813 126.046L38.8248 125.806C39.264 126.068 39.4054 126.637 39.1403 127.074L39.1401 127.075C38.8764 127.509 38.3064 127.65 37.869 127.385C34.9598 125.631 32.9693 123.166 31.9215 119.93C31.7641 119.445 32.0326 118.924 32.5196 118.77C33.0061 118.614 33.5273 118.882 33.6842 119.366L33.6842 119.367C34.5897 122.165 36.3053 124.287 38.8258 125.806L38.6813 126.046Z" fill="#303030" stroke="#011625" stroke-width="0.56"/>
<path d="M31.9423 155.497L31.9422 155.497C31.4639 156.029 30.8049 156.09 30.1764 155.862C30.1761 155.862 30.1759 155.862 30.1757 155.862L30.2711 155.599C29.752 155.413 29.2095 154.96 28.9618 154.718L31.9423 155.497ZM31.9423 155.497C32.5015 154.874 32.6397 154.255 32.525 153.702L31.9423 155.497ZM30.7088 154.064C30.7076 154.067 30.7056 154.072 30.7024 154.079C30.7019 154.08 30.7013 154.081 30.7008 154.082L30.7088 154.064ZM30.7088 154.064C30.705 154.054 30.6947 154.034 30.6648 154.003C30.6252 153.962 30.5688 153.918 30.4886 153.861L30.4884 153.861C30.372 153.778 30.2371 153.7 30.0902 153.63C30.2293 153.761 30.4609 153.959 30.6962 154.08L30.7088 154.064ZM27.3418 153.259C27.7664 153.85 28.2414 154.408 28.7665 154.919L32.525 153.701C32.4162 153.174 32.0619 152.715 31.5635 152.36L31.5634 152.36C31.0877 152.021 30.4577 151.768 29.8433 151.596C29.2908 151.441 28.7329 151.346 28.2807 151.314C27.9259 150.711 27.6247 150.077 27.3783 149.42C25.4339 144.24 28.2615 138.084 34.3349 134.327C35.3507 133.699 36.77 133.391 38.4468 133.318C40.1186 133.244 42.0169 133.404 43.9681 133.687C49.253 134.451 54.842 136.173 57.4817 136.986C57.8776 137.108 58.2071 137.21 58.4594 137.285L58.46 137.285C58.7068 137.358 58.9103 137.403 59.0635 137.429C59.1399 137.442 59.2057 137.45 59.2593 137.455C59.3035 137.458 59.3613 137.462 59.4121 137.454C59.8492 137.394 60.04 137.116 60.1284 136.932L60.1297 136.93C60.2512 136.67 60.259 136.429 60.2124 136.221L60.212 136.219C60.1465 135.935 59.968 135.677 59.6595 135.5L59.6577 135.499C59.4885 135.403 59.2594 135.333 59.0391 135.28L59.0363 135.279C58.9922 135.269 58.9481 135.261 58.909 135.253C58.9002 135.252 58.8917 135.25 58.8835 135.249C58.8534 135.243 58.827 135.239 58.8011 135.233C58.7685 135.227 58.7437 135.221 58.7245 135.215C58.7066 135.209 58.6992 135.205 58.6983 135.205C58.1569 134.882 57.6355 134.533 57.1055 134.177C57.0281 134.126 56.9506 134.074 56.8728 134.022L56.8723 134.021C54.8433 132.671 53.0104 131.135 51.2027 129.484L51.0208 129.683L51.2026 129.484C50.7171 129.04 50.229 128.598 49.7403 128.154C44.4152 123.321 39.0055 118.412 35.7559 111.995L35.7558 111.995C35.5262 111.542 34.9707 111.355 34.5133 111.584C34.0551 111.811 33.8732 112.367 34.102 112.823L34.1025 112.824C37.4937 119.523 43.1321 124.645 48.588 129.602C49.0446 130.016 49.5 130.43 49.9527 130.844L49.9527 130.844C51.1233 131.912 52.3097 132.939 53.5536 133.904C50.4257 133.039 46.4992 132.094 42.8461 131.68C40.9559 131.466 39.1301 131.401 37.5078 131.555C35.8885 131.708 34.4519 132.081 33.3557 132.759L33.3557 132.759C26.5525 136.967 23.382 144.042 25.6438 150.064L25.6438 150.064C25.8421 150.591 26.0712 151.109 26.3312 151.61C21.0299 153.102 17.757 158.156 18.7023 163.653C18.7885 164.158 19.2682 164.493 19.7696 164.41L19.7696 164.41L19.7714 164.41C20.2738 164.324 20.6144 163.85 20.5283 163.345L20.5282 163.344C19.7171 158.627 22.6565 154.315 27.3418 153.259Z" fill="#303030" stroke="#011625" stroke-width="0.56"/>
<path d="M80.9636 44.578C80.6738 43.3774 78.966 43.3774 78.6761 44.578L78.3007 46.1332C78.1971 46.5623 77.8621 46.8973 77.4331 47.0009L75.8779 47.3763C74.6772 47.6661 74.6772 49.3739 75.8779 49.6638L77.4331 50.0392C77.8621 50.1428 78.1971 50.4778 78.3007 50.9068L78.6761 52.462C78.966 53.6627 80.6738 53.6627 80.9636 52.462L81.339 50.9068C81.4426 50.4778 81.7776 50.1428 82.2067 50.0392L83.7619 49.6638C84.9625 49.3739 84.9625 47.6661 83.7619 47.3763L82.2067 47.0009C81.7776 46.8973 81.4426 46.5623 81.339 46.1332L80.9636 44.578Z" fill="#417BA4"/>
<circle cx="131.06" cy="127.2" r="3.36" fill="#417BA4"/>
<path d="M66.7355 83.4306C67.5847 77.0701 70.026 71.029 73.8316 65.8708C77.6372 60.7127 82.683 56.6056 88.4985 53.9326C94.314 51.2597 100.71 50.1081 107.089 50.5851C113.468 51.0622 119.622 53.1524 124.979 56.6608L139.572 51.6838C140.012 51.5383 140.484 51.5222 140.933 51.6376C141.382 51.753 141.789 51.995 142.105 52.3349C142.422 52.6748 142.634 53.0985 142.718 53.5559C142.802 54.0132 142.753 54.485 142.578 54.9156L136.726 68.92C139.838 74.1218 141.664 79.996 142.049 86.0507C142.434 92.1055 141.367 98.1647 138.939 103.721C136.511 109.278 132.791 114.17 128.091 117.988C123.391 121.806 117.848 124.439 111.926 125.667C106.003 126.895 99.8739 126.682 94.0504 125.045C88.227 123.409 82.879 120.397 78.4541 116.261C74.0293 112.125 70.6562 106.987 68.6174 101.275C66.5786 95.5629 65.9333 89.4441 66.7355 83.4306V83.4306Z" fill="#303030"/>
<path d="M41.7947 100.409C42.6439 106.77 45.0852 112.811 48.8908 117.969C52.6964 123.127 57.7422 127.234 63.5577 129.907C69.3732 132.58 75.7688 133.732 82.1478 133.255C88.5269 132.778 94.6816 130.688 100.038 127.179L114.631 132.156C115.071 132.302 115.544 132.318 115.993 132.202C116.442 132.087 116.848 131.845 117.164 131.505C117.481 131.165 117.693 130.741 117.777 130.284C117.861 129.827 117.812 129.355 117.637 128.924L111.785 114.92C114.898 109.718 116.723 103.844 117.108 97.7893C117.493 91.7345 116.427 85.6753 113.998 80.1188C111.57 74.5623 107.85 69.6702 103.15 65.852C98.4506 62.0338 92.9075 59.4005 86.985 58.1727C81.0626 56.9448 74.9331 57.158 69.1096 58.7945C63.2862 60.431 57.9382 63.4432 53.5133 67.5788C49.0885 71.7145 45.7155 76.8533 43.6766 82.5652C41.6378 88.2771 40.9925 94.3959 41.7947 100.409V100.409Z" fill="#FF4040"/>
<path fill-rule="evenodd" clip-rule="evenodd" d="M72.4663 106.501C72.4663 101.68 75.9996 98.1542 79.9072 98.1542C83.8148 98.1542 87.3482 101.68 87.3482 106.501H92.3882C92.3882 99.3184 87.0021 93.1142 79.9072 93.1142C72.8123 93.1142 67.4263 99.3184 67.4263 106.501H72.4663Z" fill="white"/>
<path d="M66.3241 92.9176C68.8247 92.9176 70.8518 90.8905 70.8518 88.3899C70.8518 85.8893 68.8247 83.8622 66.3241 83.8622C63.8235 83.8622 61.7964 85.8893 61.7964 88.3899C61.7964 90.8905 63.8235 92.9176 66.3241 92.9176Z" fill="white"/>
<path d="M93.4902 92.9176C95.9908 92.9176 98.0179 90.8905 98.0179 88.3899C98.0179 85.8893 95.9908 83.8622 93.4902 83.8622C90.9896 83.8622 88.9625 85.8893 88.9625 88.3899C88.9625 90.8905 90.9896 92.9176 93.4902 92.9176Z" fill="white"/>
</g>
<defs>
<linearGradient id="paint0_linear_201_3852" x1="90.8714" y1="-14.5908" x2="92.6852" y2="268.593" gradientUnits="userSpaceOnUse">
<stop stop-color="#F2F2F2"/>
<stop offset="1" stop-color="#EFEFEF"/>
</linearGradient>
<clipPath id="clip0_201_3852">
<rect width="175" height="175" fill="white" transform="translate(0.5)"/>
</clipPath>
</defs>
</svg>
