<svg width="176" height="175" viewBox="0 0 176 175" fill="none" xmlns="http://www.w3.org/2000/svg">
<g clip-path="url(#clip0_201_3807)">
<path d="M90.7083 159.333C128.563 159.333 159.25 128.646 159.25 90.7916C159.25 52.9371 128.563 22.25 90.7083 22.25C52.8538 22.25 22.1667 52.9371 22.1667 90.7916C22.1667 128.646 52.8538 159.333 90.7083 159.333Z" fill="#EAF4FA"/>
<path d="M49.3881 117.333L78.1893 38.2469L138.925 102.465L68.3837 134.847C57.0838 140.035 45.1335 129.016 49.3881 117.333Z" fill="#46A1DA"/>
<ellipse cx="109.237" cy="69.9601" rx="10.1364" ry="44.429" transform="rotate(-43.1847 109.237 69.9601)" fill="black"/>
<mask id="mask0_201_3807" style="mask-type:alpha" maskUnits="userSpaceOnUse" x="48" y="38" width="91" height="99">
<path d="M49.3881 117.333L78.1893 38.2469L138.925 102.465L68.3837 134.847C57.0838 140.035 45.1335 129.016 49.3881 117.333Z" fill="#17CB9E"/>
</mask>
<g mask="url(#mask0_201_3807)">
<path fill-rule="evenodd" clip-rule="evenodd" d="M76.8389 90.835C64.6705 74.8992 58.5136 55.9008 56.5278 43.1458L66.3264 41.6203C68.1139 53.1014 73.7558 70.4572 84.7205 84.8166C95.5821 99.0409 111.473 110.133 134.136 110.133V120.05C107.687 120.05 89.1106 106.906 76.8389 90.835Z" fill="black"/>
<path fill-rule="evenodd" clip-rule="evenodd" d="M78.1451 87.7873C65.9767 71.8515 59.8198 52.8532 57.834 40.0982L67.6326 38.5726C69.4201 50.0538 75.062 67.4096 86.0267 81.769C96.8883 95.9932 112.779 107.085 135.442 107.085V117.002C108.993 117.002 90.4168 103.858 78.1451 87.7873Z" fill="white"/>
<path fill-rule="evenodd" clip-rule="evenodd" d="M62.4715 110.862C50.303 94.9267 44.1461 75.9283 42.1603 63.1733L51.959 61.6478C53.7464 73.1289 59.3884 90.4847 70.3531 104.844C81.2146 119.068 97.1054 130.161 119.768 130.161V140.077C93.3198 140.077 74.7431 126.933 62.4715 110.862Z" fill="white"/>
</g>
<circle cx="105" cy="123.75" r="17.5" fill="#007850"/>
<path fill-rule="evenodd" clip-rule="evenodd" d="M112.081 118.44C112.759 119.129 112.749 120.237 112.06 120.915L103.752 129.081C103.071 129.751 101.979 129.751 101.298 129.081L97.9399 125.78C97.2506 125.102 97.2411 123.994 97.9187 123.305C98.5962 122.616 99.7042 122.606 100.393 123.284L102.525 125.379L109.607 118.419C110.296 117.741 111.404 117.751 112.081 118.44Z" fill="white"/>
<path fill-rule="evenodd" clip-rule="evenodd" d="M139.492 40.3054C140.719 37.1906 141.082 34.0816 141.616 30.8269C141.72 30.1913 141.288 29.5934 140.652 29.4887C140.017 29.3839 139.416 29.8161 139.312 30.4516C138.806 33.5378 138.484 36.4959 137.32 39.4546C137.084 40.0531 137.38 40.7305 137.98 40.9635C138.579 41.2003 139.257 40.9039 139.492 40.3054Z" fill="black"/>
<path fill-rule="evenodd" clip-rule="evenodd" d="M145.406 47.4528C151.455 43.2626 157.381 37.6238 161.787 31.7186C162.171 31.2027 162.064 30.4722 161.547 30.0899C161.03 29.7076 160.298 29.813 159.914 30.3289C155.654 36.0384 149.923 41.492 144.074 45.5407C143.545 45.9081 143.415 46.6341 143.782 47.1608C144.15 47.6875 144.878 47.8202 145.406 47.4528Z" fill="black"/>
<path fill-rule="evenodd" clip-rule="evenodd" d="M146.053 53.002C150.874 54.4738 156.142 53.7711 160.887 52.4153C161.506 52.2362 161.864 51.5916 161.686 50.9769C161.509 50.3583 160.861 50.0015 160.243 50.1768C155.921 51.4132 151.126 52.1167 146.734 50.7768C146.118 50.5886 145.466 50.9355 145.278 51.5481C145.09 52.1608 145.437 52.8138 146.053 53.002Z" fill="black"/>
<circle cx="146.417" cy="61.3333" r="3.5" fill="black"/>
<circle cx="117.25" cy="25.1667" r="3.5" fill="#0075BE"/>
<path d="M123.983 40.6021C123.681 39.3514 121.902 39.3514 121.6 40.6021L121.209 42.2221C121.101 42.6691 120.752 43.018 120.305 43.1259L118.685 43.517C117.435 43.8189 117.435 45.5978 118.685 45.8997L120.305 46.2908C120.752 46.3987 121.101 46.7476 121.209 47.1946L121.6 48.8146C121.902 50.0653 123.681 50.0653 123.983 48.8146L124.374 47.1946C124.482 46.7476 124.831 46.3987 125.278 46.2908L126.898 45.8997C128.149 45.5978 128.149 43.8189 126.898 43.517L125.278 43.1259C124.831 43.018 124.482 42.6691 124.374 42.2221L123.983 40.6021Z" fill="#46A1DA"/>
<path fill-rule="evenodd" clip-rule="evenodd" d="M109.063 13.6811C109.417 14.5806 108.974 15.5965 108.075 15.9502C105.507 16.9597 102.217 20.2117 100.02 24.2593C98.3483 27.3403 97.5361 30.4518 97.8771 32.9983C98.9044 31.5319 100.134 30.329 101.561 29.5563C104.118 28.1712 107.036 28.3182 109.86 30.2431C112.328 31.9249 113.335 34.3181 113.068 36.7026C112.813 38.9825 111.423 41.0435 109.536 42.3383C107.621 43.6525 105.078 44.2585 102.455 43.4553C100.968 43 99.5423 42.1196 98.2373 40.7827C96.9925 45.6292 97.0372 51.7 99.0948 57.0691C99.4407 57.9716 98.9894 58.9836 98.0869 59.3295C97.1844 59.6753 96.1724 59.2241 95.8266 58.3216C93.113 51.2406 93.4655 43.1536 95.6783 37.2636C95.6155 37.1501 95.5531 37.0349 95.4913 36.9183C93.1635 32.5231 94.5572 26.988 96.9443 22.5898C99.3498 18.1576 103.164 14.1202 106.794 12.6929C107.693 12.3393 108.709 12.7817 109.063 13.6811ZM99.6082 36.9628C100.93 38.8403 102.301 39.7477 103.48 40.1087C104.964 40.5633 106.412 40.2373 107.555 39.4525C108.727 38.6484 109.463 37.4436 109.59 36.3138C109.704 35.2886 109.346 34.1281 107.889 33.1353C106.043 31.877 104.526 31.9305 103.228 32.6338C101.933 33.3351 100.651 34.8027 99.6082 36.9628Z" fill="#ABBFEE"/>
<path fill-rule="evenodd" clip-rule="evenodd" d="M165.555 82.1242C147.212 75.3063 133.174 83.7842 128.635 88.5792C127.527 89.749 125.681 89.7996 124.511 88.6922C123.341 87.5848 123.291 85.7387 124.398 84.5689C130.163 78.4795 146.573 68.8455 167.587 76.6564C169.097 77.2176 169.866 78.8965 169.305 80.4064C168.744 81.9164 167.065 82.6854 165.555 82.1242Z" fill="#0075BE"/>
<path fill-rule="evenodd" clip-rule="evenodd" d="M146.894 88.2534C147.303 88.1035 147.734 87.9043 148.066 87.6159C148.461 87.2733 148.621 86.8322 148.729 86.3678C148.867 85.7711 148.923 85.1356 149.09 84.538C149.153 84.316 149.272 84.2321 149.323 84.1949C149.453 84.1009 149.584 84.0757 149.707 84.0852C149.853 84.096 150.054 84.1528 150.186 84.4045C150.205 84.4405 150.229 84.4954 150.246 84.5706C150.258 84.6257 150.266 84.7981 150.278 84.8691C150.31 85.0442 150.337 85.2192 150.362 85.3952C150.445 85.981 150.492 86.4785 150.755 87.0166C151.111 87.7472 151.467 88.1942 151.951 88.3921C152.419 88.5836 152.978 88.5476 153.692 88.3975C153.76 88.3806 153.828 88.366 153.894 88.3542C154.209 88.2976 154.51 88.5101 154.572 88.8326C154.634 89.1549 154.434 89.4689 154.122 89.5397C154.056 89.5545 153.992 89.5685 153.929 89.5813C152.963 89.8269 151.846 90.7035 151.196 91.4711C150.996 91.7077 150.703 92.3694 150.404 92.7915C150.183 93.1029 149.935 93.3081 149.727 93.3806C149.587 93.4295 149.47 93.422 149.373 93.3973C149.231 93.3615 149.114 93.283 149.024 93.158C148.975 93.0896 148.93 92.9979 148.908 92.8809C148.898 92.8246 148.897 92.6815 148.897 92.6167C148.836 92.4013 148.762 92.191 148.707 91.9737C148.578 91.4551 148.323 91.1268 148.021 90.6931C147.739 90.2872 147.435 90.0322 146.99 89.8286C146.932 89.8141 146.465 89.6966 146.301 89.6292C146.06 89.5303 145.945 89.3647 145.903 89.2755C145.832 89.1242 145.825 88.9919 145.839 88.8817C145.86 88.719 145.931 88.5798 146.057 88.4673C146.135 88.3975 146.252 88.3295 146.408 88.2964C146.529 88.2706 146.849 88.2556 146.894 88.2534ZM149.634 87.4082C149.655 87.4578 149.678 87.5076 149.703 87.5579C150.224 88.6279 150.807 89.2252 151.516 89.5151L151.539 89.5245C151.065 89.8862 150.636 90.2904 150.308 90.6779C150.173 90.8374 149.995 91.1689 149.801 91.5088C149.626 90.9225 149.339 90.5082 148.978 89.9896C148.702 89.5939 148.413 89.2961 148.058 89.0533C148.334 88.9081 148.597 88.7379 148.826 88.5391C149.207 88.2082 149.459 87.8248 149.634 87.4082Z" fill="#ABBFEE"/>
<path d="M45.374 89.8532L45.3741 89.8531C45.7681 89.4984 45.802 88.8888 45.4473 88.4921C45.0946 88.0941 44.4851 88.0597 44.09 88.4154C41.4566 90.7853 39.9556 93.7254 39.522 97.2371C39.4555 97.7656 39.8319 98.2478 40.3566 98.3146L40.357 98.3147C40.8857 98.3812 41.367 98.0052 41.4299 97.4761L41.1403 97.4416L41.4298 97.4774C41.8053 94.4349 43.0963 91.9021 45.374 89.8532Z" fill="black" stroke="black" stroke-width="0.583333"/>
<path d="M10.2641 103.529L10.2639 103.529C9.55513 103.3 9.21732 102.699 9.16716 102.004C9.1192 101.368 9.33762 100.612 9.46628 100.263C9.72974 99.5463 10.0585 98.8578 10.4403 98.2031C7.44823 94.1937 2.09819 93.2277 -2.04493 96.0012L-2.04527 96.0014C-2.48922 96.2977 -3.08455 96.1748 -3.38008 95.7336L-3.38115 95.732L-3.38114 95.732C-3.67287 95.2902 -3.55727 94.6915 -3.11369 94.3953C1.71496 91.163 7.91142 92.1319 11.5805 96.5418C11.9471 96.0817 12.3421 95.6442 12.7597 95.2317L12.7597 95.2316C17.5285 90.5244 25.6041 90.5382 32.4948 95.2241L32.4948 95.2241C33.6047 95.9793 34.569 97.1877 35.402 98.663C36.2366 100.141 36.9495 101.906 37.5482 103.795C38.7054 107.445 39.4722 111.582 39.977 114.924C40.3666 113.332 40.8403 111.767 41.3601 110.2L41.3601 110.2C41.5613 109.594 41.7616 108.985 41.9624 108.375C44.3623 101.081 46.8424 93.5433 51.7756 87.4746L51.7763 87.4737C52.1132 87.0625 52.7189 86.9997 53.1295 87.3392C53.5415 87.677 53.5995 88.2848 53.2659 88.6956L53.2659 88.6956C48.5405 94.5103 46.166 101.74 43.8286 108.857C43.6141 109.51 43.3999 110.162 43.1842 110.812L42.9073 110.72L43.1842 110.812C42.3809 113.232 41.697 115.628 41.2737 118.131L41.2736 118.132C41.2571 118.228 41.2406 118.324 41.2241 118.419C41.1111 119.074 41 119.719 40.9226 120.371L40.9226 120.371C40.9226 120.371 40.922 120.38 40.9244 120.4C40.9269 120.421 40.9317 120.447 40.9392 120.48C40.9469 120.515 40.9556 120.549 40.9659 120.592C40.9757 120.632 40.9866 120.677 40.9956 120.724L40.9962 120.727C41.0391 120.959 41.0693 121.206 41.0504 121.408L41.0502 121.41C41.0127 121.779 40.8424 122.058 40.5999 122.241L40.5985 122.242C40.4204 122.375 40.1879 122.47 39.8894 122.464L39.8863 122.464C39.6741 122.458 39.3289 122.394 39.0859 122.005L10.2641 103.529ZM10.2641 103.529C11.0936 103.797 11.7415 103.666 12.2194 103.322L10.2641 103.529ZM11.1037 101.748C11.1002 101.748 11.0948 101.748 11.0871 101.748C11.0859 101.748 11.0847 101.748 11.0834 101.748L11.1037 101.748ZM11.1037 101.748C11.1121 101.74 11.1264 101.721 11.1432 101.68C11.1656 101.625 11.1831 101.553 11.2035 101.452L11.2035 101.452C11.2333 101.306 11.2496 101.145 11.2546 100.975C11.1884 101.163 11.0987 101.467 11.0835 101.742L11.1037 101.748ZM-2.20718 95.7588L-2.20716 95.7588L-2.20718 95.7588Z" fill="black" stroke="black" stroke-width="0.583333"/>
</g>
<defs>
<clipPath id="clip0_201_3807">
<rect width="175" height="175" fill="white" transform="translate(0.5)"/>
</clipPath>
</defs>
</svg>
