<svg width="413" height="372" viewBox="0 0 413 372" fill="none" xmlns="http://www.w3.org/2000/svg">
<g filter="url(#filter0_d_104_1937)">
<path d="M14.38 229.34C14.38 230.007 14.22 230.627 13.9 231.2C13.58 231.773 13.0933 232.24 12.44 232.6C11.7866 232.96 10.98 233.14 10.02 233.14C9.08665 233.14 8.25331 232.973 7.51998 232.64C6.79998 232.293 6.21998 231.827 5.77998 231.24C5.35331 230.64 5.10665 229.96 5.03998 229.2H6.97998C7.01998 229.6 7.15331 229.993 7.37998 230.38C7.61998 230.753 7.95331 231.067 8.37998 231.32C8.81998 231.56 9.34665 231.68 9.95998 231.68C10.76 231.68 11.3733 231.467 11.8 231.04C12.2266 230.613 12.44 230.067 12.44 229.4C12.44 228.827 12.2866 228.36 11.98 228C11.6866 227.64 11.32 227.36 10.88 227.16C10.44 226.947 9.83998 226.72 9.07998 226.48C8.18665 226.187 7.46665 225.913 6.91998 225.66C6.38665 225.393 5.92665 225 5.53998 224.48C5.16665 223.96 4.97998 223.273 4.97998 222.42C4.97998 221.687 5.15331 221.04 5.49998 220.48C5.85998 219.92 6.36665 219.487 7.01998 219.18C7.68665 218.873 8.46665 218.72 9.35998 218.72C10.7466 218.72 11.8466 219.06 12.66 219.74C13.4733 220.407 13.9466 221.26 14.08 222.3H12.12C12.0133 221.74 11.7266 221.247 11.26 220.82C10.7933 220.393 10.16 220.18 9.35998 220.18C8.62665 220.18 8.03998 220.373 7.59998 220.76C7.15998 221.133 6.93998 221.667 6.93998 222.36C6.93998 222.907 7.07998 223.353 7.35998 223.7C7.65331 224.033 8.01331 224.3 8.43998 224.5C8.86665 224.687 9.45331 224.9 10.2 225.14C11.1066 225.433 11.8333 225.713 12.38 225.98C12.94 226.247 13.4133 226.653 13.8 227.2C14.1866 227.733 14.38 228.447 14.38 229.34Z" fill="black"/>
<path d="M26.5872 222.02V233H24.7672V230.42C24.4872 231.313 23.9872 232 23.2672 232.48C22.5605 232.947 21.7338 233.18 20.7872 233.18C19.5205 233.18 18.4938 232.773 17.7072 231.96C16.9205 231.133 16.5272 229.953 16.5272 228.42V222.02H18.3472V228.24C18.3472 229.333 18.6272 230.18 19.1872 230.78C19.7472 231.367 20.5072 231.66 21.4672 231.66C22.4672 231.66 23.2672 231.34 23.8672 230.7C24.4672 230.047 24.7672 229.1 24.7672 227.86V222.02H26.5872Z" fill="black"/>
<path d="M35.563 221.88C36.5363 221.88 37.4029 222.107 38.1629 222.56C38.9229 223.013 39.5163 223.667 39.943 224.52C40.383 225.373 40.603 226.373 40.603 227.52C40.603 228.667 40.383 229.667 39.943 230.52C39.5163 231.36 38.9229 232.007 38.1629 232.46C37.4029 232.913 36.5363 233.14 35.563 233.14C34.4963 233.14 33.5896 232.873 32.8429 232.34C32.1096 231.793 31.6029 231.08 31.3229 230.2V238.2H29.5029V222.02H31.3229V224.82C31.6029 223.94 32.1096 223.233 32.8429 222.7C33.5896 222.153 34.4963 221.88 35.563 221.88ZM35.0429 223.5C34.3363 223.5 33.6963 223.667 33.1229 224C32.5496 224.32 32.1029 224.787 31.7829 225.4C31.4629 226.013 31.3029 226.72 31.3029 227.52C31.3029 228.32 31.4629 229.027 31.7829 229.64C32.1029 230.24 32.5496 230.707 33.1229 231.04C33.6963 231.373 34.3363 231.54 35.0429 231.54C36.1763 231.54 37.0763 231.187 37.743 230.48C38.423 229.76 38.763 228.773 38.763 227.52C38.763 226.267 38.423 225.287 37.743 224.58C37.0763 223.86 36.1763 223.5 35.0429 223.5Z" fill="black"/>
<path d="M49.0395 221.88C50.0128 221.88 50.8795 222.107 51.6395 222.56C52.3995 223.013 52.9928 223.667 53.4195 224.52C53.8595 225.373 54.0795 226.373 54.0795 227.52C54.0795 228.667 53.8595 229.667 53.4195 230.52C52.9928 231.36 52.3995 232.007 51.6395 232.46C50.8795 232.913 50.0128 233.14 49.0395 233.14C47.9728 233.14 47.0662 232.873 46.3195 232.34C45.5862 231.793 45.0795 231.08 44.7995 230.2V238.2H42.9795V222.02H44.7995V224.82C45.0795 223.94 45.5862 223.233 46.3195 222.7C47.0662 222.153 47.9728 221.88 49.0395 221.88ZM48.5195 223.5C47.8128 223.5 47.1728 223.667 46.5995 224C46.0262 224.32 45.5795 224.787 45.2595 225.4C44.9395 226.013 44.7795 226.72 44.7795 227.52C44.7795 228.32 44.9395 229.027 45.2595 229.64C45.5795 230.24 46.0262 230.707 46.5995 231.04C47.1728 231.373 47.8128 231.54 48.5195 231.54C49.6528 231.54 50.5528 231.187 51.2195 230.48C51.8995 229.76 52.2395 228.773 52.2395 227.52C52.2395 226.267 51.8995 225.287 51.2195 224.58C50.5528 223.86 49.6528 223.5 48.5195 223.5Z" fill="black"/>
<path d="M58.2761 218.2V233H56.4561V218.2H58.2761Z" fill="black"/>
<path d="M60.8822 218.8C60.8822 218.467 60.9955 218.2 61.2222 218C61.4488 217.787 61.7488 217.68 62.1222 217.68C62.4955 217.68 62.7955 217.787 63.0222 218C63.2488 218.2 63.3622 218.467 63.3622 218.8C63.3622 219.133 63.2488 219.407 63.0222 219.62C62.7955 219.82 62.4955 219.92 62.1222 219.92C61.7488 219.92 61.4488 219.82 61.2222 219.62C60.9955 219.407 60.8822 219.133 60.8822 218.8ZM63.0222 222.02V233H61.2022V222.02H63.0222Z" fill="black"/>
<path d="M76.0483 226.9C76.0483 227.287 76.0216 227.62 75.9683 227.9H67.1883C67.2283 229.153 67.5816 230.093 68.2483 230.72C68.9283 231.347 69.7549 231.66 70.7283 231.66C71.6083 231.66 72.3416 231.44 72.9283 231C73.5283 230.547 73.8949 229.947 74.0283 229.2H75.9683C75.8349 229.96 75.5349 230.64 75.0683 231.24C74.6149 231.84 74.0216 232.307 73.2883 232.64C72.5549 232.973 71.7283 233.14 70.8083 233.14C69.7549 233.14 68.8216 232.913 68.0083 232.46C67.1949 232.007 66.5549 231.36 66.0883 230.52C65.6349 229.667 65.4083 228.667 65.4083 227.52C65.4083 226.373 65.6349 225.373 66.0883 224.52C66.5549 223.667 67.1949 223.013 68.0083 222.56C68.8216 222.107 69.7549 221.88 70.8083 221.88C71.8749 221.88 72.8016 222.107 73.5883 222.56C74.3883 223.013 74.9949 223.62 75.4083 224.38C75.8349 225.14 76.0483 225.98 76.0483 226.9ZM74.2083 227.02C74.2483 226.207 74.1149 225.527 73.8083 224.98C73.5016 224.433 73.0816 224.027 72.5483 223.76C72.0149 223.493 71.4349 223.36 70.8083 223.36C69.8083 223.36 68.9683 223.673 68.2883 224.3C67.6083 224.913 67.2416 225.82 67.1883 227.02H74.2083Z" fill="black"/>
<path d="M80.2487 224.24C80.6087 223.48 81.1354 222.893 81.8287 222.48C82.5221 222.053 83.3487 221.84 84.3087 221.84V223.82H83.7487C82.7221 223.82 81.8821 224.087 81.2287 224.62C80.5754 225.14 80.2487 226.007 80.2487 227.22V233H78.4287V222.02H80.2487V224.24Z" fill="black"/>
<path d="M89.5445 221.88C90.7845 221.88 91.7778 222.207 92.5245 222.86C93.2845 223.5 93.7445 224.367 93.9045 225.46H92.1645C92.0845 224.807 91.8112 224.273 91.3445 223.86C90.8912 223.433 90.2778 223.22 89.5045 223.22C88.8512 223.22 88.3378 223.38 87.9645 223.7C87.6045 224.007 87.4245 224.427 87.4245 224.96C87.4245 225.36 87.5445 225.687 87.7845 225.94C88.0378 226.18 88.3445 226.367 88.7045 226.5C89.0778 226.62 89.5845 226.753 90.2245 226.9C91.0378 227.087 91.6912 227.28 92.1845 227.48C92.6912 227.667 93.1178 227.973 93.4645 228.4C93.8245 228.827 94.0045 229.4 94.0045 230.12C94.0045 231.013 93.6645 231.74 92.9845 232.3C92.3178 232.86 91.4245 233.14 90.3045 233.14C88.9978 233.14 87.9312 232.827 87.1045 232.2C86.2778 231.573 85.7912 230.7 85.6445 229.58H87.4045C87.4712 230.247 87.7578 230.787 88.2645 231.2C88.7845 231.613 89.4645 231.82 90.3045 231.82C90.9312 231.82 91.4178 231.66 91.7645 231.34C92.1245 231.02 92.3045 230.6 92.3045 230.08C92.3045 229.653 92.1778 229.313 91.9245 229.06C91.6712 228.807 91.3578 228.613 90.9845 228.48C90.6112 228.347 90.0978 228.207 89.4445 228.06C88.6312 227.873 87.9778 227.687 87.4845 227.5C87.0045 227.313 86.5912 227.02 86.2445 226.62C85.9112 226.207 85.7445 225.653 85.7445 224.96C85.7445 224.04 86.0845 223.3 86.7645 222.74C87.4445 222.167 88.3712 221.88 89.5445 221.88Z" fill="black"/>
<path d="M343.34 225.7C344.207 225.887 344.907 226.3 345.44 226.94C345.987 227.58 346.26 228.333 346.26 229.2C346.26 230.347 345.867 231.267 345.08 231.96C344.307 232.653 343.18 233 341.7 233H336.46V218.9H341.62C343.033 218.9 344.107 219.213 344.84 219.84C345.573 220.467 345.94 221.327 345.94 222.42C345.94 223.327 345.693 224.06 345.2 224.62C344.72 225.18 344.1 225.54 343.34 225.7ZM338.28 225.08H341.32C342.213 225.08 342.893 224.873 343.36 224.46C343.84 224.047 344.08 223.467 344.08 222.72C344.08 222 343.847 221.433 343.38 221.02C342.913 220.607 342.2 220.4 341.24 220.4H338.28V225.08ZM341.36 231.48C342.32 231.48 343.06 231.26 343.58 230.82C344.113 230.38 344.38 229.76 344.38 228.96C344.38 228.173 344.107 227.56 343.56 227.12C343.027 226.667 342.28 226.44 341.32 226.44H338.28V231.48H341.36Z" fill="black"/>
<path d="M358.29 222.02V233H356.47V230.42C356.19 231.313 355.69 232 354.97 232.48C354.264 232.947 353.437 233.18 352.49 233.18C351.224 233.18 350.197 232.773 349.41 231.96C348.624 231.133 348.23 229.953 348.23 228.42V222.02H350.05V228.24C350.05 229.333 350.33 230.18 350.89 230.78C351.45 231.367 352.21 231.66 353.17 231.66C354.17 231.66 354.97 231.34 355.57 230.7C356.17 230.047 356.47 229.1 356.47 227.86V222.02H358.29Z" fill="black"/>
<path d="M361.966 222.02L365.526 230.66L368.826 222.02H370.846L364.326 238.2H362.266L364.546 232.82L359.926 222.02H361.966Z" fill="black"/>
<path d="M382.615 226.9C382.615 227.287 382.588 227.62 382.535 227.9H373.755C373.795 229.153 374.148 230.093 374.815 230.72C375.495 231.347 376.321 231.66 377.295 231.66C378.175 231.66 378.908 231.44 379.495 231C380.095 230.547 380.461 229.947 380.595 229.2H382.535C382.401 229.96 382.101 230.64 381.635 231.24C381.181 231.84 380.588 232.307 379.855 232.64C379.121 232.973 378.295 233.14 377.375 233.14C376.321 233.14 375.388 232.913 374.575 232.46C373.761 232.007 373.121 231.36 372.655 230.52C372.201 229.667 371.975 228.667 371.975 227.52C371.975 226.373 372.201 225.373 372.655 224.52C373.121 223.667 373.761 223.013 374.575 222.56C375.388 222.107 376.321 221.88 377.375 221.88C378.441 221.88 379.368 222.107 380.155 222.56C380.955 223.013 381.561 223.62 381.975 224.38C382.401 225.14 382.615 225.98 382.615 226.9ZM380.775 227.02C380.815 226.207 380.681 225.527 380.375 224.98C380.068 224.433 379.648 224.027 379.115 223.76C378.581 223.493 378.001 223.36 377.375 223.36C376.375 223.36 375.535 223.673 374.855 224.3C374.175 224.913 373.808 225.82 373.755 227.02H380.775Z" fill="black"/>
<path d="M386.815 224.24C387.175 223.48 387.702 222.893 388.395 222.48C389.088 222.053 389.915 221.84 390.875 221.84V223.82H390.315C389.288 223.82 388.448 224.087 387.795 224.62C387.142 225.14 386.815 226.007 386.815 227.22V233H384.995V222.02H386.815V224.24Z" fill="black"/>
<path d="M396.111 221.88C397.351 221.88 398.344 222.207 399.091 222.86C399.851 223.5 400.311 224.367 400.471 225.46H398.731C398.651 224.807 398.378 224.273 397.911 223.86C397.458 223.433 396.844 223.22 396.071 223.22C395.418 223.22 394.904 223.38 394.531 223.7C394.171 224.007 393.991 224.427 393.991 224.96C393.991 225.36 394.111 225.687 394.351 225.94C394.604 226.18 394.911 226.367 395.271 226.5C395.644 226.62 396.151 226.753 396.791 226.9C397.604 227.087 398.258 227.28 398.751 227.48C399.258 227.667 399.684 227.973 400.031 228.4C400.391 228.827 400.571 229.4 400.571 230.12C400.571 231.013 400.231 231.74 399.551 232.3C398.884 232.86 397.991 233.14 396.871 233.14C395.564 233.14 394.498 232.827 393.671 232.2C392.844 231.573 392.358 230.7 392.211 229.58H393.971C394.038 230.247 394.324 230.787 394.831 231.2C395.351 231.613 396.031 231.82 396.871 231.82C397.498 231.82 397.984 231.66 398.331 231.34C398.691 231.02 398.871 230.6 398.871 230.08C398.871 229.653 398.744 229.313 398.491 229.06C398.238 228.807 397.924 228.613 397.551 228.48C397.178 228.347 396.664 228.207 396.011 228.06C395.198 227.873 394.544 227.687 394.051 227.5C393.571 227.313 393.158 227.02 392.811 226.62C392.478 226.207 392.311 225.653 392.311 224.96C392.311 224.04 392.651 223.3 393.331 222.74C394.011 222.167 394.938 221.88 396.111 221.88Z" fill="black"/>
<path d="M357.222 164.101C357.829 163.936 358.261 163.441 358.435 162.864C358.608 162.287 358.348 161.627 357.828 161.297C355.663 159.648 352.891 158.658 350.12 158.658H341.718C334.27 158.658 328.467 165.008 329.766 172.264C329.939 173.089 330.805 173.831 331.758 173.831H348.301C350.033 166.327 356.962 164.183 357.222 164.101Z" fill="#46A1DA"/>
<path d="M396.197 158.658H387.796C385.024 158.658 382.253 159.565 380.088 161.297C379.655 161.71 379.395 162.287 379.481 162.864C379.568 163.442 380.001 163.937 380.607 164.101C380.694 164.101 388.922 167.235 389.615 173.831H406.244C407.197 173.831 408.063 173.171 408.236 172.264C409.536 165.008 403.646 158.658 396.197 158.658Z" fill="#46A1DA"/>
<path d="M377.749 154.041C377.749 158.822 373.677 162.699 368.655 162.699C363.632 162.699 359.56 158.822 359.56 154.041C359.56 149.258 363.632 145.382 368.655 145.382C373.677 145.382 377.749 149.258 377.749 154.041Z" fill="#46A1DA"/>
<path d="M387.276 179.851V177.13C387.276 170.12 381.3 164.431 373.939 164.431H363.285C355.923 164.431 349.947 170.121 349.947 177.13V179.851C349.947 180.758 350.726 181.5 351.679 181.5H385.458C386.497 181.501 387.276 180.758 387.276 179.851Z" fill="#46A1DA"/>
<path d="M339.727 149.34C339.727 153.381 343.105 156.597 347.349 156.597C351.593 156.597 354.971 153.381 354.971 149.34C354.971 145.299 351.593 142.083 347.349 142.083C343.191 142.084 339.727 145.3 339.727 149.34Z" fill="#46A1DA"/>
<path d="M389.615 156.597C393.859 156.597 397.237 153.381 397.237 149.34C397.237 145.299 393.859 142.083 389.615 142.083C385.371 142.083 381.993 145.299 381.993 149.34C381.993 153.381 385.371 156.597 389.615 156.597Z" fill="#46A1DA"/>
<path d="M152.352 13.4257L153.437 16.3673L156.708 15.1607L157.023 16.0151L153.752 17.2218L154.86 20.2245L158.497 18.8828L158.83 19.786L154.082 21.5375L150.908 12.9321L155.656 11.1807L155.989 12.0839L152.352 13.4257Z" fill="black"/>
<path d="M167.758 16.9177L165.188 14.84L164.371 17.9406L163.113 18.3204L164.29 14.1188L161.036 11.4865L162.331 11.0954L164.829 13.1135L165.644 10.0951L166.902 9.7153L165.71 13.826L169.054 16.5266L167.758 16.9177Z" fill="black"/>
<path d="M176.828 13.4599L177.074 14.4712L176.215 14.6804C175.507 14.8527 174.935 14.8133 174.499 14.5624C174.071 14.3094 173.761 13.7868 173.568 12.9946L172.658 9.2528L171.621 9.50506L171.378 8.50641L172.415 8.25415L171.993 6.52231L173.156 6.23928L173.578 7.97112L175.373 7.53427L175.616 8.53293L173.821 8.96977L174.737 12.7368C174.846 13.1835 175.001 13.4716 175.202 13.6012C175.41 13.7203 175.716 13.7306 176.12 13.6322L176.828 13.4599Z" fill="black"/>
<path d="M187.678 8.31112C187.723 8.55856 187.745 8.77499 187.744 8.9604L182.125 9.98545C182.297 10.7828 182.633 11.3431 183.133 11.6663C183.641 11.988 184.207 12.092 184.829 11.9784C185.393 11.8756 185.836 11.6492 186.16 11.2991C186.491 10.939 186.656 10.5122 186.654 10.0188L187.896 9.79233C187.899 10.2943 187.786 10.7644 187.558 11.2029C187.338 11.6398 187.013 12.0077 186.582 12.3066C186.152 12.6056 185.642 12.8087 185.053 12.9161C184.379 13.0391 183.756 13.003 183.182 12.8079C182.609 12.6127 182.124 12.2736 181.727 11.7905C181.337 11.2974 181.076 10.6839 180.942 9.95009C180.808 9.21629 180.836 8.54988 181.027 7.95087C181.226 7.3503 181.559 6.85748 182.026 6.47242C182.494 6.08736 183.065 5.83334 183.739 5.71036C184.421 5.58583 185.041 5.6227 185.597 5.82096C186.162 6.01767 186.621 6.33508 186.975 6.77318C187.336 7.20972 187.571 7.72237 187.678 8.31112ZM186.515 8.60273C186.445 8.07757 186.281 7.65798 186.021 7.34394C185.761 7.02991 185.444 6.8187 185.072 6.71032C184.699 6.60193 184.313 6.58432 183.912 6.65748C183.272 6.77423 182.771 7.07281 182.409 7.55323C182.045 8.02512 181.916 8.64814 182.022 9.4223L186.515 8.60273Z" fill="black"/>
<path d="M196.305 3.84096C197.132 3.74725 197.831 3.93877 198.4 4.41551C198.968 4.88364 199.308 5.61756 199.422 6.61729L199.889 10.7411L198.712 10.8744L198.257 6.85395C198.177 6.14725 197.934 5.62479 197.529 5.28659C197.124 4.94838 196.612 4.81441 195.991 4.8847C195.345 4.95791 194.852 5.22762 194.512 5.69385C194.171 6.15145 194.046 6.781 194.136 7.58251L194.562 11.3444L193.386 11.4776L192.582 4.38046L193.759 4.24722L193.949 5.92779C194.065 5.32987 194.333 4.84991 194.755 4.48791C195.185 4.12494 195.702 3.90929 196.305 3.84096Z" fill="black"/>
<path d="M207.558 2.98053C208.251 2.95054 208.844 3.09854 209.335 3.42454C209.835 3.75016 210.193 4.19913 210.409 4.77146L210.223 0.469137L211.406 0.417969L211.822 10.0365L210.639 10.0876L210.56 8.26791C210.395 8.85674 210.077 9.33495 209.607 9.70255C209.145 10.0698 208.568 10.2684 207.875 10.2984C207.242 10.3257 206.672 10.2028 206.166 9.92955C205.659 9.6563 205.251 9.2529 204.941 8.71935C204.64 8.17677 204.473 7.53287 204.441 6.78765C204.409 6.04244 204.519 5.38654 204.773 4.81997C205.035 4.25302 205.406 3.81155 205.887 3.49556C206.368 3.17957 206.925 3.00789 207.558 2.98053ZM207.941 4.01875C207.214 4.05023 206.639 4.3095 206.217 4.79655C205.804 5.27455 205.615 5.92082 205.65 6.73536C205.685 7.5499 205.929 8.18176 206.383 8.63094C206.845 9.07109 207.44 9.27541 208.167 9.24393C208.635 9.22368 209.047 9.09737 209.401 8.865C209.764 8.63225 210.042 8.3164 210.233 7.91747C210.423 7.50987 210.508 7.04611 210.485 6.52619C210.463 6.00627 210.339 5.55151 210.114 5.1619C209.888 4.77229 209.585 4.48156 209.203 4.28971C208.83 4.08883 208.409 3.9985 207.941 4.01875Z" fill="black"/>
<path d="M228.348 1.1792C229.464 1.25695 230.366 1.59802 231.054 2.20241C231.743 2.79815 232.193 3.58154 232.403 4.5526L231.157 4.4658C230.966 3.84386 230.623 3.33743 230.129 2.94651C229.635 2.54695 229.012 2.32094 228.259 2.2685C227.662 2.22692 227.115 2.33664 226.619 2.59767C226.132 2.85065 225.731 3.24005 225.416 3.76587C225.11 4.28363 224.932 4.90592 224.881 5.63273C224.831 6.35088 224.922 6.98752 225.153 7.54266C225.392 8.0984 225.735 8.53963 226.182 8.86637C226.638 9.18505 227.165 9.36518 227.762 9.40677C228.514 9.45921 229.163 9.32614 229.706 9.00755C230.251 8.68031 230.661 8.22199 230.937 7.6326L232.183 7.71939C231.84 8.65187 231.285 9.36968 230.52 9.8728C229.755 10.3673 228.815 10.5756 227.699 10.4979C226.842 10.4382 226.098 10.1908 225.468 9.75562C224.838 9.3118 224.362 8.72651 224.038 7.99974C223.724 7.26493 223.599 6.44759 223.661 5.54774C223.725 4.63923 223.963 3.84289 224.376 3.1587C224.797 2.47512 225.35 1.96155 226.035 1.618C226.72 1.2658 227.491 1.11953 228.348 1.1792Z" fill="black"/>
<path d="M239.107 5.83447C239.405 5.37564 239.796 5.04299 240.278 4.83652C240.762 4.62145 241.314 4.55547 241.933 4.63856L241.761 5.91511L241.4 5.86664C240.738 5.77777 240.174 5.87699 239.706 6.16429C239.24 6.44299 238.954 6.97348 238.849 7.75574L238.349 11.4822L237.176 11.3247L238.126 4.24565L239.3 4.40319L239.107 5.83447Z" fill="black"/>
<path d="M252.672 9.89544C252.624 10.1424 252.566 10.3519 252.497 10.5241L246.89 9.43575C246.76 10.2411 246.869 10.8851 247.217 11.368C247.574 11.8524 248.063 12.155 248.685 12.2757C249.247 12.3847 249.742 12.3351 250.171 12.1269C250.611 11.9118 250.919 11.5741 251.097 11.1138L252.336 11.3543C252.156 11.8231 251.881 12.2201 251.508 12.5454C251.144 12.8724 250.708 13.0968 250.198 13.2188C249.688 13.3408 249.14 13.3447 248.552 13.2307C247.88 13.1001 247.312 12.8397 246.848 12.4494C246.385 12.059 246.057 11.5668 245.863 10.9725C245.679 10.3714 245.658 9.70469 245.801 8.97245C245.943 8.2402 246.211 7.62971 246.607 7.14098C247.01 6.6539 247.5 6.31602 248.076 6.12735C248.651 5.93868 249.275 5.90962 249.948 6.04019C250.629 6.17242 251.193 6.43203 251.639 6.81904C252.094 7.2077 252.406 7.67031 252.576 8.20687C252.754 8.74508 252.786 9.30794 252.672 9.89544ZM251.482 9.74399C251.608 9.22956 251.608 8.77879 251.479 8.39169C251.351 8.00458 251.134 7.69282 250.826 7.45642C250.519 7.22002 250.165 7.06298 249.765 6.9853C249.126 6.86134 248.551 6.95731 248.039 7.2732C247.529 7.58057 247.182 8.11411 246.999 8.8738L251.482 9.74399Z" fill="black"/>
<path d="M261.534 8.68185C262.204 8.86108 262.725 9.1799 263.096 9.63828C263.475 10.0989 263.682 10.6346 263.717 11.2453L264.829 7.08506L265.973 7.39089L263.486 16.6916L262.342 16.3858L262.813 14.6262C262.478 15.1383 262.031 15.4992 261.473 15.7089C260.922 15.9208 260.312 15.9372 259.641 15.7579C259.03 15.5944 258.523 15.3063 258.122 14.8937C257.72 14.4811 257.452 13.9739 257.317 13.3721C257.192 12.7642 257.226 12.0999 257.419 11.3793C257.611 10.6587 257.913 10.0661 258.325 9.60154C258.745 9.13922 259.232 8.82946 259.785 8.67228C260.339 8.5151 260.922 8.51829 261.534 8.68185ZM261.588 9.78728C260.884 9.59908 260.258 9.67408 259.71 10.0123C259.172 10.3443 258.798 10.9042 258.587 11.6918C258.377 12.4795 258.42 13.1555 258.718 13.72C259.027 14.2784 259.533 14.6516 260.237 14.8398C260.69 14.9608 261.12 14.9636 261.528 14.8483C261.944 14.7351 262.303 14.5169 262.605 14.1936C262.909 13.862 263.128 13.4448 263.263 12.942C263.397 12.4393 263.416 11.9683 263.317 11.5291C263.219 11.0899 263.017 10.7216 262.711 10.4241C262.415 10.1205 262.041 9.90826 261.588 9.78728Z" fill="black"/>
<path d="M271.317 9.45334C271.385 9.24723 271.509 9.10524 271.689 9.02736C271.873 8.94124 272.08 8.93589 272.31 9.01132C272.541 9.08674 272.705 9.2133 272.802 9.39101C272.902 9.56047 272.918 9.74825 272.851 9.95437C272.784 10.1605 272.658 10.3066 272.475 10.3927C272.294 10.4706 272.089 10.4718 271.858 10.3964C271.627 10.321 271.462 10.1985 271.362 10.0291C271.265 9.85137 271.25 9.65946 271.317 9.45334ZM271.99 11.8767L269.772 18.6661L268.647 18.2984L270.865 11.509L271.99 11.8767Z" fill="black"/>
<path d="M278.304 20.6072L277.938 21.5817L277.11 21.2708C276.427 21.0148 275.977 20.6604 275.758 20.2076C275.547 19.7579 275.584 19.1513 275.871 18.388L277.224 14.7826L276.225 14.4077L276.586 13.4454L277.585 13.8203L278.211 12.1515L279.332 12.5721L278.706 14.2408L280.435 14.89L280.074 15.8522L278.345 15.2031L276.982 18.8329C276.821 19.2633 276.787 19.5887 276.88 19.809C276.985 20.0242 277.232 20.205 277.621 20.3512L278.304 20.6072Z" fill="black"/>
<path d="M74.5632 328.208C75.099 328.552 75.4654 329.007 75.6625 329.572C75.8685 330.141 75.862 330.717 75.6431 331.3C75.3534 332.071 74.8565 332.59 74.1522 332.858C73.4569 333.129 72.6115 333.077 71.6161 332.704L68.0916 331.38L71.6534 321.896L75.1241 323.199C76.0747 323.557 76.7175 324.038 77.0525 324.645C77.3874 325.252 77.4168 325.923 77.1406 326.658C76.9116 327.268 76.5604 327.699 76.0871 327.951C75.6228 328.207 75.1148 328.292 74.5632 328.208ZM71.3164 326.513L73.3612 327.28C73.962 327.506 74.4716 327.539 74.8899 327.379C75.3172 327.222 75.6251 326.893 75.8138 326.39C75.9956 325.906 75.9818 325.466 75.7724 325.07C75.5629 324.674 75.1353 324.355 74.4896 324.112L72.4987 323.365L71.3164 326.513ZM71.7713 331.595C72.417 331.838 72.9704 331.877 73.4313 331.712C73.9011 331.551 74.2371 331.201 74.4392 330.663C74.6379 330.134 74.609 329.652 74.3525 329.218C74.1083 328.779 73.6633 328.438 73.0176 328.195L70.9729 327.427L69.6997 330.817L71.7713 331.595Z" fill="black"/>
<path d="M89.4414 330.66L86.889 338.125L85.6517 337.702L86.2514 335.948C85.8534 336.49 85.3539 336.841 84.7528 337C84.1639 337.153 83.5477 337.119 82.9041 336.899C82.043 336.605 81.4395 336.09 81.0938 335.354C80.7511 334.609 80.758 333.715 81.1145 332.673L82.6022 328.322L83.8395 328.745L82.3936 332.973C82.1395 333.717 82.133 334.357 82.3742 334.896C82.6186 335.425 83.0671 335.801 83.7197 336.024C84.3996 336.256 85.0178 336.225 85.5745 335.929C86.1343 335.624 86.5583 335.051 86.8465 334.208L88.2041 330.237L89.4414 330.66Z" fill="black"/>
<path d="M95.4002 332.592L96.006 339.278L100.108 334.051L101.495 334.48L93.5789 344.198L92.1652 343.76L94.8741 340.552L94.0002 332.158L95.4002 332.592Z" fill="black"/>
<path d="M123.652 340.518L119.488 347.593L118.124 347.243L117.622 340.481L113.908 346.159L112.53 345.804L112.323 337.606L113.603 337.935L113.579 344.783L117.347 338.897L118.669 339.237L119.149 346.2L122.441 340.207L123.652 340.518Z" fill="black"/>
<path d="M128.613 339.277C128.666 339.043 128.788 338.875 128.979 338.771C129.172 338.658 129.399 338.631 129.661 338.691C129.922 338.751 130.115 338.874 130.24 339.06C130.366 339.236 130.403 339.441 130.35 339.675C130.296 339.908 130.173 340.081 129.98 340.194C129.789 340.298 129.563 340.32 129.302 340.26C129.04 340.2 128.846 340.082 128.719 339.906C128.595 339.72 128.559 339.51 128.613 339.277ZM129.595 341.875L127.834 349.565L126.559 349.273L128.32 341.583L129.595 341.875Z" fill="black"/>
<path d="M137.509 350.483L137.274 351.609L136.317 351.409C135.53 351.244 134.978 350.933 134.663 350.475C134.357 350.02 134.296 349.352 134.48 348.47L135.351 344.307L134.197 344.066L134.43 342.954L135.583 343.196L135.986 341.269L137.28 341.539L136.877 343.466L138.874 343.884L138.642 344.995L136.645 344.577L135.768 348.769C135.664 349.266 135.682 349.627 135.821 349.852C135.971 350.069 136.271 350.225 136.721 350.319L137.509 350.483Z" fill="black"/>
<path d="M148.289 345.563C149.194 345.728 149.871 346.153 150.321 346.839C150.772 347.515 150.898 348.4 150.698 349.493L149.875 354.003L148.589 353.768L149.391 349.372C149.532 348.599 149.443 347.969 149.122 347.482C148.802 346.995 148.303 346.69 147.624 346.566C146.917 346.437 146.31 346.565 145.802 346.949C145.295 347.324 144.962 347.95 144.802 348.826L144.051 352.94L142.765 352.705L144.673 342.245L145.96 342.479L145.132 347.017C145.445 346.422 145.882 346 146.444 345.752C147.014 345.505 147.63 345.442 148.289 345.563Z" fill="black"/>
<path d="M160.265 347.587C161.014 347.701 161.657 347.963 162.195 348.374C162.743 348.787 163.137 349.322 163.376 349.978C163.625 350.636 163.688 351.372 163.564 352.187C163.44 353.001 163.162 353.686 162.729 354.24C162.307 354.787 161.773 355.175 161.128 355.407C160.491 355.64 159.799 355.699 159.051 355.586C158.303 355.472 157.655 355.209 157.107 354.797C156.569 354.385 156.174 353.856 155.924 353.207C155.675 352.549 155.612 351.813 155.736 350.998C155.86 350.184 156.138 349.499 156.571 348.945C157.004 348.391 157.538 347.997 158.175 347.764C158.82 347.533 159.517 347.474 160.265 347.587ZM160.093 348.724C159.629 348.653 159.182 348.692 158.752 348.84C158.332 348.99 157.966 349.263 157.654 349.662C157.352 350.052 157.154 350.564 157.057 351.199C156.962 351.824 157 352.372 157.171 352.844C157.352 353.308 157.621 353.673 157.978 353.94C158.344 354.209 158.759 354.379 159.224 354.449C159.688 354.52 160.13 354.48 160.55 354.331C160.979 354.183 161.345 353.914 161.646 353.523C161.958 353.125 162.162 352.613 162.257 351.988C162.353 351.354 162.311 350.805 162.129 350.341C161.958 349.869 161.69 349.499 161.324 349.231C160.967 348.963 160.557 348.794 160.093 348.724Z" fill="black"/>
<path d="M176.267 349.823L175.316 357.654L174.018 357.497L174.241 355.656C173.964 356.269 173.548 356.716 172.993 356.996C172.449 357.267 171.839 357.362 171.164 357.28C170.26 357.17 169.563 356.791 169.072 356.143C168.583 355.485 168.405 354.61 168.537 353.516L169.092 348.951L170.39 349.109L169.851 353.545C169.756 354.325 169.883 354.953 170.23 355.43C170.579 355.897 171.095 356.172 171.78 356.255C172.493 356.342 173.092 356.183 173.575 355.778C174.06 355.364 174.356 354.715 174.463 353.83L174.969 349.665L176.267 349.823Z" fill="black"/>
<path d="M185.084 357.49L184.974 358.634L184.002 358.541C183.201 358.465 182.618 358.217 182.254 357.797C181.899 357.378 181.765 356.721 181.85 355.824L182.255 351.59L181.082 351.478L181.19 350.348L182.363 350.46L182.55 348.5L183.866 348.626L183.679 350.586L185.71 350.78L185.602 351.91L183.571 351.716L183.164 355.978C183.115 356.484 183.173 356.841 183.336 357.049C183.509 357.248 183.825 357.37 184.283 357.413L185.084 357.49Z" fill="black"/>
<path d="M205.156 352.111L204.738 359.989L203.433 359.919L203.531 358.068C203.296 358.699 202.911 359.172 202.376 359.489C201.851 359.797 201.249 359.933 200.57 359.897C199.661 359.849 198.94 359.518 198.407 358.905C197.874 358.282 197.636 357.42 197.695 356.32L197.938 351.728L199.244 351.797L199.007 356.26C198.966 357.044 199.134 357.663 199.513 358.114C199.893 358.557 200.427 358.796 201.116 358.832C201.833 358.871 202.419 358.671 202.874 358.235C203.33 357.789 203.581 357.121 203.628 356.232L203.85 352.042L205.156 352.111Z" fill="black"/>
<path d="M215.214 352.33C215.913 352.346 216.532 352.522 217.071 352.86C217.61 353.198 218.025 353.677 218.318 354.297C218.62 354.917 218.762 355.638 218.744 356.462C218.726 357.286 218.551 358.001 218.222 358.606C217.902 359.203 217.465 359.658 216.912 359.971C216.359 360.285 215.733 360.434 215.033 360.418C214.267 360.401 213.62 360.195 213.093 359.8C212.575 359.395 212.222 358.875 212.035 358.238L211.907 363.985L210.599 363.955L210.859 352.333L212.166 352.362L212.121 354.374C212.337 353.746 212.712 353.247 213.247 352.875C213.792 352.495 214.448 352.313 215.214 352.33ZM214.815 353.485C214.307 353.474 213.845 353.583 213.428 353.814C213.011 354.034 212.682 354.362 212.443 354.798C212.203 355.233 212.077 355.738 212.064 356.313C212.051 356.887 212.154 357.398 212.374 357.843C212.595 358.279 212.908 358.622 213.315 358.87C213.721 359.119 214.178 359.249 214.686 359.26C215.5 359.279 216.152 359.039 216.642 358.542C217.142 358.036 217.402 357.333 217.422 356.433C217.442 355.532 217.214 354.823 216.737 354.304C216.27 353.776 215.629 353.503 214.815 353.485Z" fill="black"/>
<path d="M227.815 350.651C227.116 350.644 226.628 350.765 226.351 351.015C226.084 351.265 225.951 351.697 225.953 352.31L225.954 352.525L227.822 352.519L227.825 353.669L225.957 353.675L225.98 360.414L224.672 360.419L224.65 353.679L223.515 353.683L223.511 352.533L224.646 352.53L224.645 352.214C224.639 350.326 225.694 349.422 227.812 349.502L227.815 350.651Z" fill="black"/>
<path d="M234.152 354.013C234.398 353.461 234.766 353.031 235.257 352.722C235.747 352.404 236.338 352.236 237.027 352.22L237.061 353.642L236.659 353.651C235.922 353.669 235.323 353.875 234.863 354.269C234.402 354.654 234.183 355.282 234.204 356.154L234.303 360.306L232.996 360.337L232.807 352.45L234.114 352.419L234.152 354.013Z" fill="black"/>
<path d="M245.533 351.904C246.289 351.867 246.971 351.996 247.581 352.291C248.2 352.587 248.692 353.032 249.057 353.628C249.432 354.223 249.64 354.932 249.681 355.755C249.722 356.578 249.585 357.304 249.271 357.934C248.966 358.553 248.52 359.04 247.934 359.396C247.357 359.75 246.69 359.947 245.934 359.984C245.179 360.022 244.491 359.893 243.872 359.598C243.263 359.302 242.771 358.861 242.396 358.275C242.022 357.68 241.814 356.971 241.773 356.148C241.732 355.325 241.868 354.599 242.182 353.97C242.496 353.34 242.942 352.848 243.519 352.493C244.106 352.138 244.777 351.942 245.533 351.904ZM245.59 353.052C245.121 353.076 244.691 353.202 244.299 353.433C243.918 353.663 243.613 354.004 243.386 354.457C243.169 354.899 243.076 355.441 243.108 356.082C243.139 356.713 243.285 357.243 243.546 357.671C243.816 358.09 244.153 358.394 244.556 358.585C244.968 358.776 245.409 358.859 245.877 358.836C246.346 358.813 246.772 358.686 247.153 358.456C247.545 358.226 247.849 357.889 248.067 357.447C248.294 356.994 248.392 356.452 248.36 355.821C248.329 355.18 248.177 354.65 247.907 354.232C247.646 353.804 247.31 353.494 246.897 353.304C246.494 353.113 246.059 353.029 245.59 353.052Z" fill="black"/>
<path d="M258.798 351.011C259.715 350.938 260.478 351.175 261.089 351.722C261.699 352.26 262.048 353.083 262.136 354.19L262.5 358.76L261.196 358.864L260.842 354.409C260.779 353.626 260.531 353.04 260.096 352.652C259.662 352.264 259.101 352.097 258.413 352.152C257.697 352.209 257.143 352.488 256.75 352.99C256.357 353.483 256.196 354.173 256.266 355.062L256.598 359.23L255.295 359.334L254.669 351.47L255.972 351.366L256.12 353.228C256.27 352.572 256.584 352.052 257.063 351.668C257.551 351.283 258.13 351.064 258.798 351.011Z" fill="black"/>
<path d="M271.825 356.671L271.946 357.814L270.974 357.917C270.174 358.001 269.554 357.874 269.113 357.535C268.683 357.195 268.42 356.578 268.326 355.682L267.879 351.452L266.707 351.576L266.588 350.447L267.76 350.323L267.553 348.365L268.868 348.227L269.075 350.184L271.104 349.97L271.223 351.099L269.194 351.313L269.643 355.572C269.696 356.077 269.824 356.415 270.025 356.586C270.234 356.747 270.568 356.804 271.025 356.755L271.825 356.671Z" fill="black"/>
<path d="M287.776 347.696C288.467 347.593 289.107 347.662 289.695 347.903C290.284 348.145 290.775 348.546 291.168 349.107C291.571 349.667 291.834 350.354 291.955 351.169C292.077 351.984 292.027 352.718 291.805 353.371C291.591 354.013 291.238 354.536 290.746 354.938C290.254 355.341 289.662 355.594 288.97 355.697C288.212 355.811 287.54 355.717 286.952 355.417C286.373 355.107 285.938 354.654 285.645 354.058L286.494 359.743L285.201 359.936L283.484 348.438L284.778 348.245L285.075 350.235C285.18 349.58 285.465 349.024 285.93 348.567C286.402 348.099 287.018 347.809 287.776 347.696ZM287.578 348.902C287.076 348.977 286.639 349.164 286.267 349.461C285.893 349.749 285.625 350.128 285.463 350.598C285.301 351.068 285.262 351.587 285.347 352.156C285.432 352.724 285.62 353.209 285.913 353.611C286.204 354.004 286.571 354.288 287.013 354.464C287.456 354.64 287.929 354.691 288.431 354.616C289.236 354.495 289.838 354.149 290.237 353.576C290.644 352.992 290.781 352.255 290.648 351.364C290.515 350.474 290.169 349.813 289.611 349.383C289.061 348.942 288.383 348.782 287.578 348.902Z" fill="black"/>
<path d="M299.919 345.694C300.673 345.557 301.344 345.63 301.93 345.913C302.527 346.194 302.986 346.631 303.308 347.225L302.949 345.246L304.235 345.012L305.645 352.774L304.358 353.008L303.999 351.029C303.906 351.698 303.63 352.269 303.171 352.742C302.721 353.213 302.119 353.517 301.365 353.654C300.676 353.779 300.035 353.73 299.439 353.507C298.844 353.284 298.337 352.904 297.918 352.366C297.507 351.818 297.227 351.138 297.08 350.328C296.933 349.517 296.955 348.783 297.147 348.125C297.349 347.465 297.689 346.926 298.168 346.508C298.647 346.09 299.231 345.819 299.919 345.694ZM300.495 346.772C299.703 346.916 299.113 347.286 298.725 347.882C298.344 348.467 298.234 349.203 298.395 350.089C298.556 350.975 298.918 351.63 299.482 352.053C300.053 352.465 300.735 352.6 301.527 352.456C302.036 352.363 302.467 352.163 302.82 351.856C303.182 351.547 303.438 351.159 303.587 350.694C303.735 350.22 303.757 349.699 303.655 349.134C303.552 348.568 303.348 348.089 303.043 347.697C302.738 347.304 302.362 347.032 301.916 346.879C301.477 346.715 301.004 346.68 300.495 346.772Z" fill="black"/>
<path d="M310.499 343.764L314.291 349.305L315.32 342.74L316.74 342.438L314.574 354.783L313.127 355.091L313.925 350.969L309.065 344.069L310.499 343.764Z" fill="black"/>
<path d="M331.042 338.872C331.934 338.649 332.722 338.758 333.405 339.2C334.095 339.629 334.575 340.383 334.844 341.461L335.956 345.908L334.688 346.226L333.603 341.89C333.415 341.137 333.085 340.608 332.614 340.301C332.151 339.992 331.599 339.918 330.958 340.078C330.289 340.245 329.806 340.603 329.508 341.152C329.218 341.688 329.18 342.384 329.393 343.239L330.408 347.296L329.139 347.613L328.055 343.278C327.867 342.525 327.537 341.995 327.065 341.688C326.594 341.382 326.042 341.307 325.41 341.465C324.731 341.635 324.243 341.994 323.946 342.542C323.656 343.079 323.617 343.775 323.831 344.63L324.846 348.687L323.577 349.004L321.663 341.351L322.932 341.033L323.368 342.776C323.402 342.125 323.617 341.583 324.012 341.148C324.414 340.702 324.926 340.401 325.549 340.246C326.2 340.083 326.804 340.11 327.361 340.326C327.926 340.53 328.391 340.927 328.756 341.518C328.814 340.841 329.052 340.273 329.47 339.813C329.886 339.344 330.41 339.03 331.042 338.872Z" fill="black"/>
<path d="M347.446 338.086C347.523 338.353 347.571 338.588 347.59 338.792L341.53 340.544C341.808 341.402 342.24 341.98 342.825 342.279C343.419 342.576 344.052 342.627 344.724 342.433C345.331 342.258 345.794 341.959 346.111 341.539C346.434 341.106 346.568 340.619 346.511 340.077L347.85 339.69C347.909 340.241 347.838 340.77 347.636 341.277C347.443 341.782 347.126 342.222 346.687 342.599C346.247 342.975 345.71 343.255 345.075 343.439C344.348 343.649 343.658 343.679 343.006 343.528C342.354 343.378 341.784 343.059 341.294 342.572C340.811 342.074 340.455 341.429 340.226 340.637C339.997 339.846 339.954 339.11 340.097 338.431C340.248 337.749 340.56 337.17 341.031 336.695C341.502 336.22 342.1 335.877 342.828 335.667C343.564 335.454 344.249 335.426 344.882 335.581C345.525 335.735 346.064 336.032 346.501 336.474C346.948 336.914 347.262 337.451 347.446 338.086ZM346.2 338.536C346.065 337.967 345.838 337.524 345.517 337.208C345.196 336.892 344.825 336.695 344.404 336.617C343.982 336.54 343.555 336.563 343.123 336.688C342.433 336.888 341.915 337.272 341.571 337.84C341.224 338.399 341.152 339.098 341.355 339.937L346.2 338.536Z" fill="black"/>
<path d="M355.616 331.727C356.491 331.445 357.289 331.5 358.009 331.893C358.726 332.276 359.255 332.996 359.595 334.054L360.999 338.418L359.754 338.818L358.385 334.564C358.145 333.816 357.769 333.304 357.256 333.025C356.744 332.747 356.16 332.714 355.503 332.925C354.819 333.145 354.344 333.545 354.078 334.124C353.808 334.693 353.81 335.402 354.082 336.25L355.363 340.231L354.118 340.632L351.702 333.122L352.947 332.721L353.519 334.5C353.514 333.827 353.7 333.249 354.078 332.765C354.465 332.278 354.978 331.932 355.616 331.727Z" fill="black"/>
<path d="M369.595 334.242L369.975 335.327L369.053 335.65C368.293 335.916 367.66 335.935 367.154 335.706C366.656 335.475 366.259 334.934 365.961 334.084L364.555 330.07L363.443 330.459L363.068 329.388L364.18 328.998L363.529 327.14L364.777 326.703L365.427 328.561L367.353 327.887L367.729 328.958L365.803 329.633L367.218 333.674C367.386 334.153 367.588 334.453 367.823 334.574C368.064 334.682 368.401 334.66 368.835 334.508L369.595 334.242Z" fill="black"/>
<path d="M374.73 325.076C375.564 324.762 376.314 324.729 376.982 324.979C377.655 325.216 378.184 325.682 378.569 326.376L377.4 326.818C377.18 326.399 376.861 326.11 376.442 325.95C376.029 325.779 375.563 325.791 375.043 325.987C374.604 326.153 374.299 326.391 374.13 326.7C373.966 326.998 373.951 327.326 374.086 327.684C374.188 327.953 374.351 328.142 374.577 328.252C374.808 328.349 375.062 328.397 375.338 328.395C375.619 328.381 375.993 328.342 376.461 328.278C377.055 328.197 377.543 328.161 377.925 328.171C378.313 328.168 378.678 328.265 379.019 328.464C379.37 328.66 379.636 328.999 379.819 329.483C380.045 330.084 380.001 330.659 379.686 331.208C379.38 331.753 378.851 332.168 378.098 332.452C377.22 332.784 376.423 332.844 375.708 332.632C374.994 332.421 374.445 331.957 374.062 331.242L375.245 330.795C375.459 331.226 375.789 331.517 376.234 331.666C376.689 331.812 377.198 331.778 377.763 331.565C378.184 331.406 378.471 331.175 378.623 330.872C378.783 330.565 378.798 330.237 378.666 329.888C378.558 329.601 378.386 329.405 378.152 329.299C377.917 329.193 377.657 329.142 377.373 329.147C377.088 329.152 376.707 329.189 376.231 329.256C375.637 329.337 375.15 329.377 374.771 329.377C374.401 329.373 374.049 329.281 373.714 329.1C373.385 328.906 373.133 328.577 372.957 328.111C372.724 327.492 372.764 326.909 373.079 326.36C373.391 325.802 373.941 325.374 374.73 325.076Z" fill="black"/>
<path d="M79.8275 192.25V147.13C79.8278 146.343 79.6142 145.572 79.2097 144.897C78.8052 144.223 78.2249 143.671 77.531 143.301L49.331 128.261C48.7026 127.925 48.0013 127.75 47.289 127.75C46.5768 127.75 45.8755 127.925 45.247 128.261L17.047 143.301C16.3531 143.671 15.7728 144.223 15.3683 144.897C14.9638 145.572 14.7503 146.343 14.7505 147.13V192.25" fill="#46A1DA"/>
<path d="M79.8275 192.25V147.13C79.8278 146.343 79.6142 145.572 79.2097 144.897C78.8052 144.223 78.2249 143.671 77.531 143.301L49.331 128.261C48.7026 127.925 48.0013 127.75 47.289 127.75C46.5768 127.75 45.8755 127.925 45.247 128.261L17.047 143.301C16.3531 143.671 15.7728 144.223 15.3683 144.897C14.9638 145.572 14.7503 146.343 14.7505 147.13V192.25" stroke="#46A1DA" stroke-width="7.06296" stroke-linecap="round" stroke-linejoin="round"/>
<path d="M45.1188 179.195H32.1034C30.9053 179.195 29.9341 180.166 29.9341 181.364V194.379C29.9341 195.577 30.9053 196.549 32.1034 196.549H45.1188C46.3168 196.549 47.288 195.577 47.288 194.379V181.364C47.288 180.166 46.3168 179.195 45.1188 179.195Z" stroke="white" stroke-width="4.70864" stroke-linecap="round" stroke-linejoin="round"/>
<path d="M62.4725 179.195H49.4571C48.2591 179.195 47.2879 180.166 47.2879 181.364V194.379C47.2879 195.577 48.2591 196.549 49.4571 196.549H62.4725C63.6706 196.549 64.6418 195.577 64.6418 194.379V181.364C64.6418 180.166 63.6706 179.195 62.4725 179.195Z" stroke="white" stroke-width="4.70864" stroke-linecap="round" stroke-linejoin="round"/>
<path d="M53.7966 161.842H40.7812C39.5831 161.842 38.6119 162.813 38.6119 164.011V177.026C38.6119 178.224 39.5831 179.195 40.7812 179.195H53.7966C54.9946 179.195 55.9658 178.224 55.9658 177.026V164.011C55.9658 162.813 54.9946 161.842 53.7966 161.842Z" stroke="white" stroke-width="4.70864" stroke-linecap="round" stroke-linejoin="round"/>
</g>
<defs>
<filter id="filter0_d_104_1937" x="0" y="0.417969" width="412.417" height="371.567" filterUnits="userSpaceOnUse" color-interpolation-filters="sRGB">
<feFlood flood-opacity="0" result="BackgroundImageFix"/>
<feColorMatrix in="SourceAlpha" type="matrix" values="0 0 0 0 0 0 0 0 0 0 0 0 0 0 0 0 0 0 127 0" result="hardAlpha"/>
<feOffset dy="4"/>
<feGaussianBlur stdDeviation="2"/>
<feComposite in2="hardAlpha" operator="out"/>
<feColorMatrix type="matrix" values="0 0 0 0 0 0 0 0 0 0 0 0 0 0 0 0 0 0 0.25 0"/>
<feBlend mode="normal" in2="BackgroundImageFix" result="effect1_dropShadow_104_1937"/>
<feBlend mode="normal" in="SourceGraphic" in2="effect1_dropShadow_104_1937" result="shape"/>
</filter>
</defs>
</svg>
